<svg xmlns="http://www.w3.org/2000/svg" viewBox="0 0 600 200" width="600" height="200">
  <defs>
    <style> .b{fill:#5b2b0a} .c{fill:#d97706} .d{fill:#fff} </style>
  </defs>
  <!-- Gear -->
  <g transform="translate(100,100)">
    <circle r="80" fill="#7c2d12" />
    <g fill="#7c2d12">
      <rect x="-92" y="-12" width="12" height="24" transform="rotate(30)"/>
      <rect x="-92" y="-12" width="12" height="24" transform="rotate(90)"/>
      <rect x="-92" y="-12" width="12" height="24" transform="rotate(150)"/>
      <rect x="-92" y="-12" width="12" height="24" transform="rotate(210)"/>
      <rect x="-92" y="-12" width="12" height="24" transform="rotate(270)"/>
      <rect x="-92" y="-12" width="12" height="24" transform="rotate(330)"/>
    </g>
    <circle r="60" fill="#fff" />
    <!-- Cup -->
    <g transform="translate(-20,0) scale(0.8)">
      <path d="M40 60 C40 85 120 85 120 60 L120 44 C120 32 110 22 98 22 L62 22 C50 22 40 32 40 44 Z" fill="#8b3b0a"/>
      <path d="M48 34 C60 24 100 24 112 34" stroke="#fff" stroke-width="4" fill="none" stroke-linecap="round"/>
      <path d="M46 20 C56 8 80 8 90 20" stroke="#d97706" stroke-width="5" fill="none" stroke-linecap="round" opacity="0.9"/>
    </g>
  </g>
  <!-- Text -->
  <g transform="translate(220,110)">
    <text x="0" y="-6" fill="#5b2b0a" font-family="Verdana,Segoe UI,Arial" font-size="28">Coffee Shop</text>
    <text x="0" y="26" fill="#5b2b0a" font-family="Verdana,Segoe UI,Arial" font-size="28">ERP System</text>
  </g>
</svg>
